<svg xmlns="http://www.w3.org/2000/svg" width="127.387" height="359.484" viewBox="0 0 127.387 359.484">
  <g id="Group_727" data-name="Group 727" transform="translate(-1765.59 -1284.782)">
    <g id="Group_732" data-name="Group 732" transform="translate(1765.59 1284.782)">
      <path id="Path_660" data-name="Path 660" d="M1881.886,1303.528a33.27,33.27,0,0,0,3.051-1.447,13.206,13.206,0,0,0-.031,1.95c.064,1.038.064,1.006-.818,1.447-1.95.975-4.183,1.887-6.259,2.673a4.47,4.47,0,0,0-1.038.5.825.825,0,0,1-.535.22c-.189,0-.345-.1-.472-.377a27.405,27.405,0,0,1-.848-2.8,22.7,22.7,0,0,0,3.113-.786l.724-.221v-8.932h-.252c-2.045,0-2.674.063-2.863.063-.314,0-.314-.031-.314-.346v-2.391c0-.314,0-.345.314-.345.189,0,.818.063,2.863.063h.252v-2.957a26.654,26.654,0,0,0-.252-4.624c1.227.032,2.2.1,3.239.221.314.031.5.189.5.377a1.774,1.774,0,0,1-.189.629,10.555,10.555,0,0,0-.189,2.988v3.366c1.793,0,2.39-.063,2.579-.063.283,0,.315.031.315.345v2.391c0,.314-.032.346-.315.346-.189,0-.786-.063-2.579-.063Zm7.926,4.372c0,.818.157,1.2.6,1.415.44.251,1.415.346,4.529.346,3.4,0,4.435-.157,5.064-.661.5-.44.66-1.068.755-3.554a8.926,8.926,0,0,0,2.264,1.006c.786.221.786.221.693,1.039-.284,2.736-.66,3.585-1.7,4.246-1.069.723-2.579,1.038-7.454,1.038-4.277,0-5.849-.377-6.636-.881-.755-.472-1.2-1.415-1.2-3.114v-9.813c-1.6.566-2.265.85-2.516.913-.315.093-.347.062-.409-.252l-.409-2.454c-.064-.314-.032-.314.251-.409.252-.063,1.069-.252,3.083-.911v-3.46a31.956,31.956,0,0,0-.189-4.467q1.6.047,3.019.189c.44.064.629.189.629.346a1.414,1.414,0,0,1-.189.661,9.519,9.519,0,0,0-.189,2.989v2.7l3.02-1.006v-4.561a32.616,32.616,0,0,0-.252-4.466,24.9,24.9,0,0,1,3.209.252c.314.031.5.156.5.346a1.754,1.754,0,0,1-.19.628,9.865,9.865,0,0,0-.189,2.831v3.964l2.423-.818c2.957-.975,3.9-1.384,4.12-1.415s.346.062.346.313l-.093,4.026a30.82,30.82,0,0,1-.756,7.109c-.471,1.824-1.352,2.39-2.7,2.39a7.4,7.4,0,0,1-1.164-.063c-.692-.063-.692-.063-.849-1.039a7.875,7.875,0,0,0-.661-2.263,7.358,7.358,0,0,0,1.667.22c.535,0,.755-.158.943-1.165a29.952,29.952,0,0,0,.377-5.5l-3.649,1.259v5.471c0,3.146.064,4.687.064,4.876,0,.315-.032.346-.346.346h-2.517c-.314,0-.346-.031-.346-.346,0-.22.064-1.73.064-4.876v-4.434l-3.02,1.038Z" transform="translate(-1776.683 -1284.782)"/>
      <path id="Path_661" data-name="Path 661" d="M1881.407,1340.928a25.983,25.983,0,0,0,2.736-1.2,18,18,0,0,0-.094,1.95c0,1.038,0,1.038-.912,1.447a8.049,8.049,0,0,1-.755.346,17.262,17.262,0,0,0,3.239-.377,54,54,0,0,0,7.958-2.17c-.094.629-.189,1.258-.22,1.886,0,1.039,0,1.07-.944,1.353a72.425,72.425,0,0,1-7.171,2.013c-.566.189-.943.283-1.132.377a1.577,1.577,0,0,1-.66.253c-.189,0-.346-.127-.472-.473a22.334,22.334,0,0,1-.661-2.83c-1.541.66-3.271,1.258-4.907,1.824a3.294,3.294,0,0,0-.943.44.888.888,0,0,1-.534.22c-.158,0-.315-.094-.409-.409a23.568,23.568,0,0,1-.661-2.83,16.346,16.346,0,0,0,2.736-.566l.693-.189v-9.184h-.064c-1.95,0-2.547.063-2.736.063-.283,0-.314-.031-.314-.346v-2.36c0-.346.031-.377.314-.377.221,0,.819.063,2.8.063v-2.893a34.556,34.556,0,0,0-.22-4.781c1.163.032,2.138.094,3.239.221.282.031.472.189.472.345a2.458,2.458,0,0,1-.126.661,11.466,11.466,0,0,0-.252,3.491v2.956c1.6,0,2.139-.063,2.327-.063.315,0,.346.031.346.377v2.36c0,.314-.031.346-.346.346-.189,0-.723-.031-2.327-.063Zm15.6-11.417a65.183,65.183,0,0,0,.849,8.869,19.315,19.315,0,0,0,1.289-3.428,18.043,18.043,0,0,0,.6-3.209,24.494,24.494,0,0,1,2.7.913c.377.189.535.283.535.566a.932.932,0,0,1-.314.6c-.253.252-.346.66-.693,1.7a28.709,28.709,0,0,1-3.114,6.919c.881,2.894,1.667,3.932,1.95,3.932.5,0,.755-1.351.881-4.026a6.949,6.949,0,0,0,1.6,1.164c.818.409.818.409.722,1.289-.44,4.215-1.351,5.347-3.208,5.347-1.289,0-2.8-1.352-4.121-4.844a25.522,25.522,0,0,1-5.944,4.78,2.383,2.383,0,0,1-.818.377c-.189,0-.346-.189-.661-.6a6.062,6.062,0,0,0-1.793-1.6,22.88,22.88,0,0,0,8.147-6.29,63.776,63.776,0,0,1-1.636-12.455h-5.6c-3.052,0-4.089.062-4.278.062-.314,0-.346-.031-.346-.377v-2.3c0-.315.032-.346.346-.346.189,0,1.227.063,4.278.063h5.5v-.377a35.081,35.081,0,0,0-.251-4.5,27.789,27.789,0,0,1,3.176.252c.346.032.5.189.5.346a1.545,1.545,0,0,1-.156.629,4.873,4.873,0,0,0-.22,2.17v1.479h1.793c3.082,0,4.152-.063,4.341-.063.314,0,.345.031.345.346v2.3c0,.346-.031.377-.345.377-.189,0-1.259-.062-4.341-.062Zm-6.92,2.327c1.7,0,2.2-.064,2.39-.064.347,0,.378.031.378.347,0,.189-.064.818-.064,2.422v2.831c0,1.634.064,2.263.064,2.452,0,.315-.031.347-.378.347-.189,0-.692-.063-2.39-.063h-2.454c-1.7,0-2.2.063-2.422.063-.314,0-.346-.031-.346-.347,0-.22.063-.818.063-2.452v-2.831c0-1.6-.063-2.233-.063-2.422,0-.315.031-.347.346-.347.22,0,.724.064,2.422.064Zm.22,2.453h-2.863v3.365h2.863Zm9.719-12.141c.377-.125.377-.093.6.157a14.672,14.672,0,0,1,1.793,2.58c.157.283.1.377-.345.535l-1.353.629c-.44.22-.472.189-.629-.157a13.181,13.181,0,0,0-1.73-2.642c-.22-.252-.157-.347.252-.5Z" transform="translate(-1776.676 -1288.531)"/>
      <path id="Path_662" data-name="Path 662" d="M1886.5,1371.676a30.511,30.511,0,0,0,6.512-5.064,12.272,12.272,0,0,0,1.635-2.17,22.574,22.574,0,0,1,2.359,1.51.861.861,0,0,1,.377.629c0,.251-.253.409-.5.472a3.608,3.608,0,0,0-1.069.88,41.537,41.537,0,0,1-7.517,5.851,20.724,20.724,0,0,0,2.422.031,6.5,6.5,0,0,0,3.146-.567c.566-.377.848-1.163.88-2.61a9.075,9.075,0,0,0,2.139.786c.817.22.817.22.692,1.069-.252,1.793-.723,2.485-1.541,3.02-.975.6-2.517.849-5.693.849-3.145,0-4.718-.094-5.63-.629a56.588,56.588,0,0,1-7.675,3.019c-.818.252-.818.22-1.131-.6a7.212,7.212,0,0,0-1.1-1.95,47.69,47.69,0,0,0,8.712-2.957v-4.183a18.169,18.169,0,0,0-.157-2.61c.975.031,1.981.094,2.925.22.409.063.566.189.566.346a.844.844,0,0,1-.157.5,3.331,3.331,0,0,0-.189,1.352Zm11.8-10.505c2.893,0,3.931-.063,4.12-.063.315,0,.346.032.346.346,0,.189-.062.693-.062,1.51v1.288c0,2.485.062,2.957.062,3.145,0,.347-.031.378-.346.378h-2.579c-.283,0-.314-.031-.314-.378v-3.521h-10.6a24.2,24.2,0,0,1,2.673,2.7c.22.283.157.346-.126.566l-1.573,1.227c-.189.126-.283.221-.377.221s-.157-.1-.284-.253a16.731,16.731,0,0,0-2.767-3.051c-.251-.189-.22-.253.157-.5l1.29-.911h-8.618v3.521c0,.347-.031.378-.377.378h-2.485c-.346,0-.377-.031-.377-.378,0-.188.064-.66.064-3.145v-1.069c0-1.037-.064-1.541-.064-1.73,0-.314.031-.346.377-.346.189,0,1.226.063,4.121.063h6.887v-.283a11.2,11.2,0,0,0-.189-2.327c1.1,0,2.265.063,3.334.157.315.031.5.157.5.315a1.469,1.469,0,0,1-.189.6,3.1,3.1,0,0,0-.157,1.29v.251Zm-21.387,11.764c-.377-.284-.409-.377-.189-.6a14.024,14.024,0,0,0,3.113-4.75c.126-.315.188-.315.6-.126l1.918.88c.346.157.409.253.283.566a18.277,18.277,0,0,1-3.271,5.284.381.381,0,0,1-.283.189.689.689,0,0,1-.377-.189Zm20.255,8.272a15.041,15.041,0,0,0-.189-2.643,31.378,31.378,0,0,1,3.239.252c.284.031.44.188.44.376a1.52,1.52,0,0,1-.156.535,4.059,4.059,0,0,0-.158,1.448v3.333c0,1.635.063,2.359.063,2.516,0,.314-.031.346-.377.346H1897.5c-.314,0-.345-.031-.345-.346v-1.132h-15.506v1.132c0,.314-.031.346-.346.346h-2.547c-.315,0-.347-.031-.347-.346,0-.189.064-.786.064-2.264v-3.209a19.524,19.524,0,0,0-.157-2.735c1.164.031,2.17.125,3.208.252.314.031.44.157.44.346,0,.252-.126.376-.189.629a3.921,3.921,0,0,0-.126,1.32v1.761h6.038v-3.081a12.817,12.817,0,0,0-.22-2.988c1.2.031,2.234.094,3.3.189.314.03.5.156.5.345a1.612,1.612,0,0,1-.22.566,6.041,6.041,0,0,0-.157,1.888v3.081h6.259Zm1.132-13.588c.346-.221.346-.251.6-.031a34.321,34.321,0,0,1,3.868,4.561c.158.283.127.409-.157.66l-1.793,1.415c-.189.126-.283.189-.377.189s-.157-.063-.252-.189a25.541,25.541,0,0,0-3.68-4.938c-.251-.252-.189-.346.158-.566Z" transform="translate(-1776.669 -1292.267)"/>
      <path id="Path_663" data-name="Path 663" d="M1879.52,1408.987c-2.8,0-3.743.063-3.932.063-.314,0-.346-.031-.346-.346v-1.855c0-.315.031-.346.346-.346.189,0,1.133.063,3.932.063h7.958v-1.636h-4.467c-3.082,0-4.151.064-4.34.064-.315,0-.346-.032-.346-.346v-1.7c0-.314.031-.346.346-.346.188,0,1.258.064,4.34.064h4.467v-1.542h-5.914c-3.019,0-4.025.063-4.214.063-.315,0-.346-.031-.346-.345v-1.825c0-.314.031-.347.346-.347.189,0,1.2.064,4.214.064h1.888a15.685,15.685,0,0,0-1.352-1.95c-.22-.284-.252-.346.188-.473l1.981-.565c.346-.1.409-.157.629.125a16.764,16.764,0,0,1,2.014,2.863h4.56c.315-.5.566-1.07.912-1.73a6.981,6.981,0,0,0,.5-1.447,26.223,26.223,0,0,1,2.894.691c.282.1.44.158.44.378a.542.542,0,0,1-.347.439,2.016,2.016,0,0,0-.566.661c-.189.345-.409.66-.629,1.006h2.39c2.989,0,4.026-.064,4.215-.064.346,0,.378.032.378.347v1.825c0,.314-.032.345-.378.345-.188,0-1.226-.063-4.215-.063h-6.384v1.542h4.75c3.082,0,4.151-.064,4.34-.064.283,0,.314.032.314.346v1.7c0,.314-.031.346-.314.346-.189,0-1.258-.064-4.34-.064h-4.75v1.636h8.3c2.768,0,3.742-.063,3.931-.063.283,0,.315.031.315.346v1.855c0,.314-.032.346-.315.346-.189,0-1.164-.063-3.931-.063h-14.154c-.126.535-.282,1.069-.44,1.572h10.6c2.831,0,4.277-.062,4.466-.062.346,0,.346.031.346.377,0,.188-.031,1.131-.031,4.183v3.208c0,4.844.031,5.755.031,5.913,0,.346,0,.377-.346.377h-2.516c-.284,0-.314-.031-.314-.377v-.786h-10.914v.88c0,.314-.032.346-.346.346h-2.391c-.314,0-.346-.031-.346-.346,0-.157.063-1.259.063-6.2v-3.3a23.047,23.047,0,0,1-5.1,6.825c-.377.315-.566.5-.755.5-.156,0-.315-.189-.629-.6a7.284,7.284,0,0,0-1.667-1.6,21.074,21.074,0,0,0,7.171-10.914Zm6.2,3.932v1.384h10.914v-1.384Zm10.914,4.717v-1.384h-10.914v1.384Zm0,3.365v-1.384h-10.914V1421Z" transform="translate(-1776.644 -1296.02)"/>
      <path id="Path_664" data-name="Path 664" d="M1879.6,1460.6c-2.768,0-3.743.063-3.932.063-.314,0-.314-.031-.314-.345v-2.3c0-.282,0-.314.314-.314.189,0,1.164.063,3.932.063h8.052v-2.988H1883.5c-3.051,0-4.12.063-4.309.063-.347,0-.377-.031-.377-.346v-2.233c0-.347.031-.377.377-.377.189,0,1.257.062,4.309.062h4.152c0-.786-.031-1.477-.094-2.233h-1.982c-.314,0-.345-.031-.345-.377,0-.189.062-1.226.062-3.522v-2.485h-2.956a13.241,13.241,0,0,1-.693,2.831,9.341,9.341,0,0,1-3.081,4.183c-.346.315-.536.472-.693.472-.189,0-.345-.189-.723-.6a7.535,7.535,0,0,0-1.793-1.447,8.294,8.294,0,0,0,3.491-3.742,10.667,10.667,0,0,0,.44-1.7c-2.359.031-3.271.064-3.428.064-.314,0-.346-.032-.346-.377v-2.108c0-.314.031-.346.346-.346.157,0,1.133.063,3.712.063.031-.661.062-1.352.062-2.139v-1.6c-1.981.031-2.736.063-2.892.063-.315,0-.346-.031-.346-.347v-2.075c0-.315.031-.346.346-.346.188,0,1.1.062,3.837.062h6.1c2.737,0,3.649-.062,3.838-.062.314,0,.346.031.346.346v2.075c0,.315-.031.347-.346.347-.157,0-.755-.031-2.264-.063v3.743c1.981,0,2.736-.063,2.893-.063.314,0,.347.031.347.346v2.108c0,.345-.032.377-.347.377-.157,0-.912-.032-2.893-.064v2.485c0,1.51,0,2.453.031,2.988.849.031,1.635.094,2.484.189.252.031.44.189.44.377a1.571,1.571,0,0,1-.157.66,5.5,5.5,0,0,0-.189,1.918h4.624c3.082,0,4.151-.062,4.34-.062.314,0,.346.031.346.377v2.233c0,.315-.031.346-.346.346-.189,0-1.258-.063-4.34-.063h-4.624v2.988h8.335c2.768,0,3.712-.063,3.9-.063.313,0,.313.032.313.314v2.3c0,.314,0,.345-.313.345-.189,0-1.132-.063-3.9-.063Zm5.692-19.972v-3.743h-2.673v2.013c0,.6,0,1.2-.031,1.73Zm7.423-2.925a17.823,17.823,0,0,0-.219-3.145c1.2.03,1.886.093,2.956.189.313.031.472.189.472.345a1.023,1.023,0,0,1-.127.535,5.54,5.54,0,0,0-.189,2.077v3.9c0,1.917.064,2.8.064,2.988,0,.345-.031.377-.377.377H1893c-.313,0-.346-.032-.346-.377,0-.189.063-1.07.063-2.988Zm9.153,5.409c0,1.636.031,3.051.031,4.152a2.105,2.105,0,0,1-.912,2.076c-.566.377-1.73.629-4.088.629-.944,0-.975,0-1.133-.975a7.506,7.506,0,0,0-.691-2.108,22.772,22.772,0,0,0,2.642.189c.912,0,1.163-.282,1.163-1.037v-8.9a20.738,20.738,0,0,0-.251-3.995c1.2.032,2.044.094,3.145.221.314.031.5.189.5.345a1.758,1.758,0,0,1-.189.723,7.818,7.818,0,0,0-.22,2.642Z" transform="translate(-1776.726 -1299.834)"/>
      <path id="Path_665" data-name="Path 665" d="M1828.765,1291.913c-1.793,0-3.711.125-5.567.252-.377.031-.5-.19-.566-.472a29.541,29.541,0,0,1-.566-3.4c2.139.157,3.869.221,6.385.221h13.493a6.657,6.657,0,0,0,2.17-.189,2.27,2.27,0,0,1,.6-.221,1.068,1.068,0,0,1,.723.441,16.114,16.114,0,0,1,1.888,1.981.911.911,0,0,1,.251.566.822.822,0,0,1-.44.66,3.863,3.863,0,0,0-.848.912,26.753,26.753,0,0,1-5.537,6.07.906.906,0,0,1-.661.283,1.231,1.231,0,0,1-.755-.315,7.252,7.252,0,0,0-2.61-1.289,22.354,22.354,0,0,0,5.63-5.5Zm1.761,12.266a14.532,14.532,0,0,0,1.541-7.423,11.386,11.386,0,0,0-.314-2.957,35.3,35.3,0,0,1,4.057.6c.409.1.534.315.534.6a1.283,1.283,0,0,1-.157.567,2.872,2.872,0,0,0-.283,1.289,19.217,19.217,0,0,1-1.856,8.649,16.357,16.357,0,0,1-5.724,6.259,1.581,1.581,0,0,1-.88.314.889.889,0,0,1-.629-.283,8.833,8.833,0,0,0-2.862-1.6C1827.381,1308.395,1829.174,1306.7,1830.526,1304.179Z" transform="translate(-1771.319 -1285.119)" fill="#e10a1f"/>
      <path id="Path_666" data-name="Path 666" d="M1825.383,1326.072a.682.682,0,0,1,.44-.189.594.594,0,0,1,.409.221,24.256,24.256,0,0,1,5.033,5.5.548.548,0,0,1,.157.376.952.952,0,0,1-.221.441,17.961,17.961,0,0,1-2.422,1.917.559.559,0,0,1-.283.127c-.157,0-.314-.127-.44-.347a24.776,24.776,0,0,0-5.22-6.038C1823.842,1327.268,1824.974,1326.387,1825.383,1326.072Zm19.972,1.07c.283.157.377.315.377.535a1.2,1.2,0,0,1-.345.723,7.025,7.025,0,0,0-1.07,2.045,45.011,45.011,0,0,1-5.882,10.851,34.883,34.883,0,0,1-8.052,7.517,1.338,1.338,0,0,1-.66.251,1.11,1.11,0,0,1-.692-.345,9.192,9.192,0,0,0-2.893-1.385,33.815,33.815,0,0,0,8.995-7.895,35.244,35.244,0,0,0,5.348-9.876,14.151,14.151,0,0,0,.818-4.183A18.176,18.176,0,0,1,1845.355,1327.142Z" transform="translate(-1771.398 -1288.901)" fill="#e10a1f"/>
      <path id="Path_667" data-name="Path 667" d="M1829.6,1370.789a59.046,59.046,0,0,0,7.674-3.052,9.745,9.745,0,0,0,3.365-2.264,18.049,18.049,0,0,1,2.611,2.83.916.916,0,0,1,.251.567c0,.251-.157.471-.534.566a16.678,16.678,0,0,0-2.61,1.038,82.559,82.559,0,0,1-10.788,3.9v4.184c0,1.478.219,1.981,1.037,2.233a16.119,16.119,0,0,0,3.963.346,55.5,55.5,0,0,0,8.87-.723c.472-.063.535.063.566.44.094.88.188,2.076.188,2.736,0,.409-.188.535-.66.567a62.93,62.93,0,0,1-9.341.566,15.486,15.486,0,0,1-5.976-.85c-1.573-.66-2.233-2.139-2.233-4.717v-11.606a32.678,32.678,0,0,0-.314-5.755,26.917,26.917,0,0,1,3.963.629c.377.094.5.283.5.5a1.376,1.376,0,0,1-.221.66,7.167,7.167,0,0,0-.314,2.83Zm13.147-9.091c.157-.125.283-.094.472.064a14.477,14.477,0,0,1,2.988,3.365.317.317,0,0,1-.094.5l-1.321.975a.329.329,0,0,1-.535-.094,15.623,15.623,0,0,0-3.177-3.649Zm2.8-2.044c.189-.126.283-.094.472.063a13.157,13.157,0,0,1,2.989,3.24.364.364,0,0,1-.1.566l-1.257.975a.323.323,0,0,1-.536-.094,14.821,14.821,0,0,0-3.145-3.617Z" transform="translate(-1771.685 -1292.37)" fill="#e10a1f"/>
      <path id="Path_668" data-name="Path 668" d="M1832.753,1397.719c.378.094.567.251.567.5,0,.44-.22.881-.22,1.321,0,.629.094,1.384.157,2.107a44.2,44.2,0,0,0,1.006,5.41c1.572-.849,2.7-1.447,4.467-2.39a7.808,7.808,0,0,0,2.17-1.7,16.176,16.176,0,0,1,2.3,2.956,1.275,1.275,0,0,1,.219.661c0,.313-.189.566-.628.629a15.068,15.068,0,0,0-3.019.944,43.659,43.659,0,0,0-7.392,3.68c-2.736,1.792-3.711,3.271-3.711,4.749,0,1.855,1.384,2.642,5,2.642a54.861,54.861,0,0,0,9.593-.723c.346-.063.5,0,.566.377a27.766,27.766,0,0,1,.314,2.925c.031.347-.189.5-.566.536a67.265,67.265,0,0,1-9.373.471c-5.945,0-9.091-1.95-9.091-6.038,0-3.491,2.3-5.788,5.977-8.115a47.623,47.623,0,0,1-1.636-7.674,14.067,14.067,0,0,0-.818-3.648A18.15,18.15,0,0,1,1832.753,1397.719Z" transform="translate(-1771.628 -1296.201)" fill="#e10a1f"/>
      <path id="Path_669" data-name="Path 669" d="M1829.431,1441.39c-2.044,0-3.837.094-5.189.157-.409.031-.535-.189-.6-.629-.1-.629-.22-2.264-.284-3.176a55.291,55.291,0,0,0,6.039.22h11.228a3.017,3.017,0,0,0,1.731-.314.887.887,0,0,1,.471-.127,1.553,1.553,0,0,1,.6.157,9.7,9.7,0,0,1,2.3,2.076.79.79,0,0,1,.22.535,1.074,1.074,0,0,1-.44.786,3.791,3.791,0,0,0-.723,1.226,37.045,37.045,0,0,1-6.1,10.223,35.274,35.274,0,0,1-8.932,7.485,1.515,1.515,0,0,1-.849.283,1.1,1.1,0,0,1-.786-.346,9.353,9.353,0,0,0-2.925-1.73,30.4,30.4,0,0,0,10.285-7.863,26.469,26.469,0,0,0,5.316-8.964Z" transform="translate(-1771.451 -1300.278)" fill="#e10a1f"/>
      <path id="Path_670" data-name="Path 670" d="M1833.5,1479.454c-1.855,0-2.862.093-4.246.157-.315,0-.629-.094-.692-.409-.126-.6-.315-1.887-.44-2.925a51.2,51.2,0,0,0,5.126.189h10.537a3.431,3.431,0,0,0,1.667-.252.935.935,0,0,1,.44-.156.842.842,0,0,1,.5.251,10.883,10.883,0,0,1,1.824,2.044.832.832,0,0,1,.157.473.507.507,0,0,1-.314.44,2.055,2.055,0,0,0-.818.661,34.324,34.324,0,0,1-4.088,4.906.758.758,0,0,1-.535.252,1.036,1.036,0,0,1-.693-.284,6.384,6.384,0,0,0-2.106-1.1,19.316,19.316,0,0,0,3.774-4.246Zm5.41,1.824c.377.094.536.252.536.5a.853.853,0,0,1-.127.44,2.8,2.8,0,0,0-.22,1.2c0,4.687-1.793,8.838-5.944,11.417a1.606,1.606,0,0,1-.755.315.945.945,0,0,1-.6-.284,7.892,7.892,0,0,0-2.454-1.289c4.309-2.36,6.385-5.316,6.385-10.222a8.274,8.274,0,0,0-.315-2.58A26.853,26.853,0,0,1,1838.909,1481.278Z" transform="translate(-1771.934 -1304.187)" fill="#e10a1f"/>
      <path id="Path_671" data-name="Path 671" d="M1830.256,1514.476a.564.564,0,0,1,.818.22,16.83,16.83,0,0,1,2.706,4.656,2.188,2.188,0,0,1,.126.471c0,.19-.126.284-.377.441a13.1,13.1,0,0,1-2.013.975c-.441.157-.63,0-.786-.44a18.6,18.6,0,0,0-2.957-5.063C1828.84,1515.137,1829.6,1514.79,1830.256,1514.476Zm17.267.409c.251.189.409.346.409.535s-.093.347-.346.567a4.32,4.32,0,0,0-.943,1.6,38.341,38.341,0,0,1-4.75,8.366,25.154,25.154,0,0,1-6.479,6.07,1.365,1.365,0,0,1-.755.346.72.72,0,0,1-.5-.22,7.1,7.1,0,0,0-2.674-1.321c3.775-2.485,5.662-4.089,7.55-6.542a32.53,32.53,0,0,0,4.245-7.579,11.33,11.33,0,0,0,.724-3.334A14.96,14.96,0,0,1,1847.523,1514.884Zm-10.914-1.917a.553.553,0,0,1,.818.251,18.235,18.235,0,0,1,2.422,4.592c.157.473.094.629-.315.85a12.927,12.927,0,0,1-2.17.974c-.345.127-.472-.031-.629-.471a21.4,21.4,0,0,0-2.642-5.033C1835.351,1513.532,1836.075,1513.186,1836.609,1512.967Z" transform="translate(-1771.898 -1307.923)" fill="#e10a1f"/>
      <path id="Path_672" data-name="Path 672" d="M1823.382,1554.451c.157-.22.315-.377.6-.315a21.8,21.8,0,0,1,6.039,3.083c.22.156.347.282.347.471a.929.929,0,0,1-.127.346,12.787,12.787,0,0,1-1.384,2.391c-.157.189-.283.314-.409.314a.613.613,0,0,1-.377-.189,27.546,27.546,0,0,0-6.353-3.429C1822.5,1555.867,1823,1554.954,1823.382,1554.451Zm5.1,11.668a52.711,52.711,0,0,0,8.618-5.442,57.145,57.145,0,0,0,9.058-8.774,15.661,15.661,0,0,0,.913,3.522,1.554,1.554,0,0,1,.157.6.981.981,0,0,1-.346.723,58.614,58.614,0,0,1-7.99,7.266,72.915,72.915,0,0,1-9.4,5.912,10.331,10.331,0,0,0-1.824,1.07.7.7,0,0,1-.5.252.811.811,0,0,1-.629-.377,19.956,19.956,0,0,1-2.328-3.208A14.542,14.542,0,0,0,1828.478,1566.12Zm-1.289-18.9c.22-.377.409-.44.786-.252a21.4,21.4,0,0,1,5.913,3.491.5.5,0,0,1,.252.409.753.753,0,0,1-.127.409,13.332,13.332,0,0,1-1.6,2.359.347.347,0,0,1-.313.189.809.809,0,0,1-.473-.22,30.366,30.366,0,0,0-6.1-3.867C1826.056,1548.915,1826.654,1548.035,1827.188,1547.217Z" transform="translate(-1771.284 -1311.371)" fill="#e10a1f"/>
      <path id="Path_673" data-name="Path 673" d="M1843.034,1591.346h-7.266c-1.478,0-2.989.158-4.4.189-.283.031-.44-.219-.472-.722-.062-.786-.094-1.384-.157-2.58a48.994,48.994,0,0,0,5.033.157h5.473c1.54,0,3.271,0,4.655-.063.377,0,.5.189.473.5,0,1.416-.064,2.736-.064,4.12v7.266c0,1.416.064,2.863.126,4.467,0,.472-.157.566-.692.6-.5.031-1.51.063-2.139.063-.5,0-.566-.094-.566-.472v-.943h-7.454c-1.478,0-2.893.064-4.34.157-.315,0-.409-.157-.441-.629a18.64,18.64,0,0,1-.156-2.61c1.7.126,3.239.126,5.063.126h7.329v-3.523h-6.668c-1.415,0-2.956.064-4.308.126-.377,0-.5-.189-.536-.692a18.049,18.049,0,0,1-.126-2.516c1.7.126,2.863.157,4.907.157h6.731Z" transform="translate(-1772.19 -1315.568)" fill="#e10a1f"/>
      <path id="Path_674" data-name="Path 674" d="M1825.142,1623.135a.586.586,0,0,1,.44-.252.83.83,0,0,1,.409.157,32.8,32.8,0,0,1,6.007,4.466c.189.189.284.315.284.441a.68.68,0,0,1-.189.409c-.472.628-1.51,1.886-1.951,2.359-.157.156-.251.252-.377.252s-.252-.1-.409-.252a33.275,33.275,0,0,0-6.417-5.127C1823.633,1624.739,1824.545,1623.763,1825.142,1623.135Zm2.737,16.575a46.656,46.656,0,0,0,9.058-5.849,47.251,47.251,0,0,0,8.617-8.555,14.025,14.025,0,0,0,.88,3.679,1.541,1.541,0,0,1,.158.6c0,.283-.158.535-.5.944a51.421,51.421,0,0,1-7.234,6.668,67.589,67.589,0,0,1-9.5,6.164,10.854,10.854,0,0,0-2.107,1.447.869.869,0,0,1-.567.314.815.815,0,0,1-.534-.346,21.753,21.753,0,0,1-2.516-3.492A18.881,18.881,0,0,0,1827.879,1639.709Z" transform="translate(-1771.408 -1319.083)" fill="#e10a1f"/>
      <path id="Path_675" data-name="Path 675" d="M1836.316,1662.991c-.723,5.346-2.044,10.253-3.932,13.556-1.352,2.36-2.988,3.617-5.346,3.617-2.767,0-5.567-2.956-5.567-8.082a11.589,11.589,0,0,1,3.554-8.178,13.762,13.762,0,0,1,10.222-4.026c7.549,0,11.984,4.655,11.984,10.914,0,5.85-3.3,9.531-9.688,11.449-.661.189-.944.063-1.352-.566a6.656,6.656,0,0,0-2.2-1.981c5.316-1.259,9.5-3.46,9.5-9.4a7.144,7.144,0,0,0-7.046-7.3Zm-9.027,3.051a9.058,9.058,0,0,0-2.453,5.819c0,2.893,1.164,4.5,2.139,4.5.818,0,1.51-.409,2.36-1.918a35.939,35.939,0,0,0,3.333-11.26A9.465,9.465,0,0,0,1827.289,1666.042Z" transform="translate(-1771.259 -1322.836)"/>
      <path id="Path_676" data-name="Path 676" d="M1772.2,1291.308a21.481,21.481,0,0,0-.347-4.593,23.256,23.256,0,0,1,3.9.661c.377.094.535.283.535.5a1.3,1.3,0,0,1-.126.472,7.252,7.252,0,0,0-.345,2.989v6.353c0,1.636.062,2.863.094,3.963,0,.473-.189.63-.691.63h-2.517c-.44,0-.629-.157-.6-.535,0-1.1.094-2.926.094-4.278Zm14.814,5.882c0,4.654-.692,7.768-2.547,10.253a16.231,16.231,0,0,1-6.921,4.938,1.982,1.982,0,0,1-.66.157,1.023,1.023,0,0,1-.755-.377,10.216,10.216,0,0,0-2.673-1.918c3.366-1.038,6.008-2.517,7.674-4.592,1.447-1.793,2.107-4.4,2.107-8.4v-5.944a23.159,23.159,0,0,0-.345-5.127,19.674,19.674,0,0,1,4.088.692.528.528,0,0,1,.441.535,1,1,0,0,1-.126.5,9.481,9.481,0,0,0-.283,3.429Z" transform="translate(-1766.226 -1284.924)"/>
      <path id="Path_677" data-name="Path 677" d="M1786.884,1342.043c1.6,0,3.271-.031,4.875-.062.6,0,.692.094.692.535a15.362,15.362,0,0,1,0,2.422c0,.5-.094.629-.534.6-1.793,0-3.743-.063-5.6-.063h-14.845c-2.139,0-3.806.094-4.97.094-.534.031-.629-.094-.692-.6a27.13,27.13,0,0,1-.22-3.051c1.794.125,3.775.157,5.6.157h9.593l1.479-10.379h-6.888c-1.51,0-3.115.062-4.467.157-.314,0-.377-.189-.44-.63a24.694,24.694,0,0,1-.283-3.113q2.406.189,5.379.189h5.6a4.887,4.887,0,0,0,2.328-.315,1.253,1.253,0,0,1,.5-.189.681.681,0,0,1,.441.189,12.157,12.157,0,0,1,2.484,2.17.815.815,0,0,1,.284.567.863.863,0,0,1-.314.628,3.549,3.549,0,0,0-.849,2.077l-1.29,8.617Z" transform="translate(-1765.59 -1289.146)"/>
      <path id="Path_678" data-name="Path 678" d="M1778.286,1366.628a28.309,28.309,0,0,0-.409-6.071,27.2,27.2,0,0,1,4.151.567.7.7,0,0,1,.629.691,1,1,0,0,1-.126.5,14.128,14.128,0,0,0-.44,4.685v11.984c0,2.014.063,4.058.094,6.1,0,.6-.126.723-.535.723-.912.031-1.919.031-2.831,0-.5-.031-.629-.157-.6-.692,0-2.044.063-4.088.063-6.1Z" transform="translate(-1766.837 -1292.47)"/>
      <path id="Path_679" data-name="Path 679" d="M1782.8,1400.726a4.616,4.616,0,0,0,2.17-.283.526.526,0,0,1,.346-.126,1.038,1.038,0,0,1,.536.252,11.491,11.491,0,0,1,2.044,2.2.842.842,0,0,1,.157.409.868.868,0,0,1-.409.629,5.777,5.777,0,0,0-1.164,1.384,49.862,49.862,0,0,1-4.026,5.882,73.949,73.949,0,0,1,8.711,7.612.714.714,0,0,1,.252.44.776.776,0,0,1-.22.472,16.8,16.8,0,0,1-2.107,2.139.54.54,0,0,1-.377.189.644.644,0,0,1-.44-.251,57.273,57.273,0,0,0-8.178-7.8,45.257,45.257,0,0,1-10.568,8.3,2.017,2.017,0,0,1-.724.252.7.7,0,0,1-.535-.284,8.618,8.618,0,0,0-2.642-2.044,39.256,39.256,0,0,0,16.984-15.915l-8.115.031c-1.635,0-3.272.064-4.969.189-.251.031-.346-.189-.409-.535a18.313,18.313,0,0,1-.284-3.271c1.7.126,3.272.126,5.316.126Z" transform="translate(-1765.594 -1296.503)"/>
      <path id="Path_680" data-name="Path 680" d="M1768.132,1443.151c.157-.22.315-.377.6-.315a21.819,21.819,0,0,1,6.039,3.082c.22.158.347.283.347.472a.932.932,0,0,1-.127.346,12.765,12.765,0,0,1-1.384,2.391c-.157.189-.283.315-.409.315a.613.613,0,0,1-.377-.189,27.543,27.543,0,0,0-6.353-3.429C1767.252,1444.566,1767.755,1443.654,1768.132,1443.151Zm5.1,11.669a52.646,52.646,0,0,0,8.618-5.442,57.158,57.158,0,0,0,9.058-8.774,15.66,15.66,0,0,0,.913,3.522,1.553,1.553,0,0,1,.157.6.981.981,0,0,1-.346.723,58.613,58.613,0,0,1-7.99,7.266,72.941,72.941,0,0,1-9.4,5.912,10.379,10.379,0,0,0-1.824,1.07.7.7,0,0,1-.5.251.809.809,0,0,1-.629-.377,19.9,19.9,0,0,1-2.328-3.208A14.512,14.512,0,0,0,1773.228,1454.82Zm-1.289-18.9c.22-.377.409-.44.786-.252a21.388,21.388,0,0,1,5.913,3.492.5.5,0,0,1,.252.409.758.758,0,0,1-.127.409,13.358,13.358,0,0,1-1.6,2.359.349.349,0,0,1-.314.189.814.814,0,0,1-.473-.22,30.374,30.374,0,0,0-6.1-3.868C1770.806,1437.616,1771.4,1436.735,1771.938,1435.917Z" transform="translate(-1765.679 -1300.079)"/>
      <path id="Path_681" data-name="Path 681" d="M1787.784,1480.046h-7.266c-1.478,0-2.989.158-4.4.189-.283.032-.44-.219-.472-.723-.062-.786-.094-1.384-.157-2.579a49.184,49.184,0,0,0,5.033.156h5.473c1.54,0,3.271,0,4.655-.063.377,0,.5.189.473.5,0,1.415-.064,2.736-.064,4.12v7.266c0,1.415.064,2.862.126,4.466,0,.473-.157.566-.692.6-.5.031-1.51.064-2.139.064-.5,0-.566-.1-.566-.473v-.943h-7.454c-1.478,0-2.893.064-4.34.157-.315,0-.409-.157-.441-.629a18.641,18.641,0,0,1-.156-2.61c1.7.126,3.239.126,5.063.126h7.329v-3.523h-6.668c-1.415,0-2.956.064-4.308.126-.377,0-.5-.189-.536-.691a18.067,18.067,0,0,1-.126-2.517c1.7.126,2.863.158,4.907.158h6.731Z" transform="translate(-1766.584 -1304.276)"/>
      <path id="Path_682" data-name="Path 682" d="M1775.005,1514.476a.564.564,0,0,1,.818.22,16.833,16.833,0,0,1,2.706,4.656,2.193,2.193,0,0,1,.126.471c0,.19-.126.284-.377.441a13.09,13.09,0,0,1-2.013.975c-.441.157-.63,0-.786-.44a18.6,18.6,0,0,0-2.957-5.063C1773.59,1515.137,1774.345,1514.79,1775.005,1514.476Zm17.267.409c.252.189.409.346.409.535s-.093.347-.346.567a4.32,4.32,0,0,0-.943,1.6,38.341,38.341,0,0,1-4.75,8.366,25.154,25.154,0,0,1-6.479,6.07,1.365,1.365,0,0,1-.755.346.72.72,0,0,1-.5-.22,7.1,7.1,0,0,0-2.674-1.321c3.775-2.485,5.662-4.089,7.55-6.542a32.53,32.53,0,0,0,4.245-7.579,11.33,11.33,0,0,0,.724-3.334A14.957,14.957,0,0,1,1792.273,1514.884Zm-10.914-1.917a.553.553,0,0,1,.818.251,18.235,18.235,0,0,1,2.422,4.592c.157.473.093.629-.315.85a12.927,12.927,0,0,1-2.17.974c-.345.127-.472-.031-.629-.471a21.4,21.4,0,0,0-2.642-5.033C1780.1,1513.532,1780.824,1513.186,1781.359,1512.967Z" transform="translate(-1766.293 -1307.923)"/>
      <path id="Path_683" data-name="Path 683" d="M1772.991,1552.521c-2.045,0-3.838.094-5.19.157-.409.031-.534-.189-.6-.629-.094-.63-.22-2.265-.283-3.177a54.964,54.964,0,0,0,6.039.221h11.229a3.017,3.017,0,0,0,1.73-.314.991.991,0,0,1,.534-.19.737.737,0,0,1,.536.22,11.6,11.6,0,0,1,2.139,2.171,1.07,1.07,0,0,1,.251.628.86.86,0,0,1-.314.6,3.8,3.8,0,0,0-.723,1.227,37.053,37.053,0,0,1-6.1,10.223,35.274,35.274,0,0,1-8.932,7.485,1.522,1.522,0,0,1-.849.283,1.1,1.1,0,0,1-.786-.346,9.355,9.355,0,0,0-2.926-1.73,30.361,30.361,0,0,0,10.285-7.863,26.48,26.48,0,0,0,5.317-8.964Zm21.733-6.039a3.4,3.4,0,0,1-6.793,0,3.317,3.317,0,0,1,3.4-3.365A3.355,3.355,0,0,1,1794.724,1546.482Zm-5.252,0a1.855,1.855,0,1,0,1.855-1.856A1.8,1.8,0,0,0,1789.472,1546.482Z" transform="translate(-1765.725 -1310.99)"/>
      <path id="Path_684" data-name="Path 684" d="M1796.239,1585.726a4.561,4.561,0,1,1-4.561-4.53A4.537,4.537,0,0,1,1796.239,1585.726Zm-7.171,0a2.611,2.611,0,1,0,2.61-2.61A2.566,2.566,0,0,0,1789.068,1585.726Z" transform="translate(-1767.774 -1314.854)"/>
    </g>
  </g>
</svg>
